<svg width="440" height="76" viewBox="0 0 440 76" fill="none" xmlns="http://www.w3.org/2000/svg">
<g clip-path="url(#clip0_40_222)">
<path d="M53.9074 52.6154C67.5865 52.6154 78.6756 41.4914 78.6756 27.7693C78.6756 14.0471 67.5865 2.9231 53.9074 2.9231C40.2283 2.9231 29.1392 14.0471 29.1392 27.7693C29.1392 41.4914 40.2283 52.6154 53.9074 52.6154Z" fill="white" stroke="#EB6E4B" stroke-width="6"/>
<path d="M56.3841 35.1938C54.4026 25.1092 45.5735 17.5385 34.9669 17.5385C26.5457 17.5385 19.2318 22.3323 15.5894 29.3477C6.81854 30.2831 0 37.7369 0 46.7692C0 56.4446 7.83841 64.3077 17.4834 64.3077H55.3642C63.4066 64.3077 69.9338 57.76 69.9338 49.6923C69.9338 41.9754 63.9603 35.72 56.3841 35.1938Z" fill="white"/>
<path d="M34.9669 23.3846C42.6013 23.3846 49.1868 28.8215 50.6728 36.3338L51.547 40.7185L56.0053 41.04C60.551 41.3323 64.106 45.1615 64.106 49.6923C64.106 54.5154 60.1722 58.4615 55.3642 58.4615H17.4834C11.0437 58.4615 5.82781 53.2292 5.82781 46.7692C5.82781 40.7769 10.2861 35.7785 16.2013 35.1646L19.3192 34.8431L20.7762 32.0661C23.5444 26.7169 28.9642 23.3846 34.9669 23.3846ZM34.9669 17.5385C26.5457 17.5385 19.2318 22.3323 15.5894 29.3477C6.81854 30.2831 0 37.7369 0 46.7692C0 56.4446 7.83841 64.3077 17.4834 64.3077H55.3642C63.4066 64.3077 69.9338 57.76 69.9338 49.6923C69.9338 41.9754 63.9603 35.72 56.3841 35.1938C54.4026 25.1092 45.5735 17.5385 34.9669 17.5385Z" fill="#EB6E4B"/>
<path d="M130.263 61.3846L117.256 13.259H126.906L134.669 44.1969C134.809 44.6646 134.949 45.3193 135.089 46.1612C135.229 46.9563 135.368 47.7981 135.508 48.6867C135.648 49.5753 135.765 50.3704 135.858 51.0719H136.208C136.301 50.5107 136.371 49.9027 136.417 49.2479C136.511 48.5932 136.604 47.9384 136.697 47.2836C136.837 46.6289 136.954 46.0443 137.047 45.5298C137.14 44.9686 137.21 44.5243 137.257 44.1969L144.46 13.259H156.139L163.342 44.1969C163.482 44.6646 163.622 45.3193 163.762 46.1612C163.901 46.9563 164.041 47.7981 164.181 48.6867C164.321 49.5753 164.438 50.3704 164.531 51.0719H164.881C164.974 50.5575 165.067 49.9963 165.16 49.3883C165.3 48.7335 165.417 48.1021 165.51 47.4941C165.65 46.8393 165.79 46.2313 165.93 45.6701C166.069 45.1089 166.186 44.6178 166.279 44.1969L174.042 13.259H182.574L169.496 61.3846H159.076L151.313 29.8153C151.173 29.1606 151.01 28.4123 150.824 27.5704C150.684 26.6818 150.544 25.8166 150.404 24.9747C150.311 24.0861 150.218 23.3144 150.124 22.6596H149.845C149.798 23.3612 149.705 24.1796 149.565 25.115C149.472 26.0036 149.355 26.8689 149.215 27.7107C149.075 28.5526 148.936 29.2541 148.796 29.8153L141.103 61.3846H130.263ZM200.148 62.2264C196.232 62.2264 192.968 61.5482 190.357 60.1919C187.746 58.7889 185.788 56.6609 184.483 53.8079C183.177 50.955 182.525 47.3304 182.525 42.9341C182.525 38.491 183.177 34.8664 184.483 32.0603C185.788 29.2073 187.746 27.1027 190.357 25.7464C192.968 24.3433 196.232 23.6418 200.148 23.6418C203.691 23.6418 206.652 24.3199 209.029 25.6763C211.454 26.9858 213.272 29.0203 214.484 31.7796C215.696 34.539 216.303 38.1169 216.303 42.5132V45.0387H191.266C191.359 47.3304 191.709 49.2713 192.315 50.8615C192.921 52.4049 193.854 53.5741 195.113 54.3692C196.418 55.1175 198.12 55.4916 200.218 55.4916C201.29 55.4916 202.292 55.3513 203.225 55.0707C204.157 54.7901 204.973 54.3692 205.673 53.8079C206.372 53.1999 206.908 52.4516 207.281 51.563C207.701 50.6744 207.91 49.6455 207.91 48.4763H216.303C216.303 50.8147 215.883 52.8492 215.044 54.5796C214.251 56.3101 213.109 57.7366 211.617 58.859C210.172 59.9815 208.47 60.8233 206.512 61.3846C204.554 61.9458 202.432 62.2264 200.148 62.2264ZM191.406 39.0055H207.421C207.421 37.4621 207.234 36.1526 206.861 35.0769C206.535 34.0012 206.046 33.1126 205.393 32.411C204.787 31.7095 204.041 31.2184 203.155 30.9378C202.269 30.6104 201.267 30.4467 200.148 30.4467C198.33 30.4467 196.791 30.7507 195.532 31.3587C194.32 31.9667 193.388 32.9021 192.735 34.1649C192.082 35.4276 191.639 37.0412 191.406 39.0055ZM232.985 62.2264C231.96 62.2264 230.771 62.0861 229.419 61.8055C228.113 61.5716 226.831 61.1039 225.572 60.4024C224.36 59.7009 223.358 58.6719 222.565 57.3156C221.773 55.9126 221.376 54.0886 221.376 51.8436C221.376 49.3181 221.936 47.2369 223.055 45.5999C224.174 43.9163 225.735 42.6067 227.74 41.6713C229.792 40.6892 232.216 40.011 235.013 39.6369C237.857 39.2159 240.958 39.0055 244.315 39.0055V35.9889C244.315 34.9132 244.151 33.9544 243.825 33.1126C243.499 32.2707 242.893 31.6159 242.007 31.1483C241.167 30.6338 239.885 30.3766 238.16 30.3766C236.435 30.3766 235.083 30.587 234.104 31.0079C233.125 31.4289 232.449 31.9433 232.076 32.5513C231.703 33.1593 231.517 33.7907 231.517 34.4455V35.4276H223.264C223.218 35.1938 223.195 34.9599 223.195 34.7261C223.195 34.4923 223.195 34.2116 223.195 33.8843C223.195 31.7796 223.824 29.9556 225.083 28.4123C226.342 26.8689 228.09 25.6996 230.328 24.9046C232.566 24.0627 235.153 23.6418 238.09 23.6418C241.447 23.6418 244.198 24.1095 246.343 25.0449C248.534 25.9803 250.166 27.3132 251.238 29.0436C252.31 30.7741 252.846 32.8787 252.846 35.3575V52.7556C252.846 53.6443 253.103 54.2756 253.616 54.6498C254.129 55.0239 254.688 55.211 255.294 55.211H257.532V61.1039C257.066 61.291 256.39 61.5015 255.504 61.7353C254.618 62.0159 253.522 62.1562 252.217 62.1562C251.005 62.1562 249.909 61.9458 248.93 61.5249C247.998 61.1507 247.205 60.5895 246.552 59.8412C245.9 59.0929 245.433 58.2043 245.154 57.1753H244.734C243.942 58.1575 242.986 59.0461 241.867 59.8412C240.795 60.5895 239.512 61.1741 238.02 61.595C236.575 62.0159 234.897 62.2264 232.985 62.2264ZM235.573 55.211C236.971 55.211 238.207 55.0006 239.279 54.5796C240.398 54.1587 241.307 53.5741 242.007 52.8258C242.753 52.0775 243.312 51.1655 243.685 50.0898C244.105 49.0141 244.315 47.8449 244.315 46.5821V44.8984C241.75 44.8984 239.373 45.0621 237.181 45.3895C235.037 45.7169 233.312 46.3249 232.006 47.2135C230.747 48.1021 230.118 49.3649 230.118 51.0018C230.118 51.8436 230.304 52.5919 230.677 53.2467C231.097 53.8547 231.703 54.3458 232.496 54.7199C233.335 55.0473 234.361 55.211 235.573 55.211ZM272.125 62.2264C269.84 62.2264 268.045 61.7821 266.74 60.8935C265.434 59.9581 264.502 58.7889 263.942 57.3858C263.429 55.9359 263.173 54.4627 263.173 52.9661V31.499H258.767V24.4836H263.383L264.921 14.171H271.705V24.4836H278.069V31.499H271.705V52.1243C271.705 53.1064 271.961 53.8781 272.474 54.4393C272.987 54.9538 273.756 55.211 274.782 55.211H278.069V61.1039C277.603 61.291 277.02 61.4547 276.321 61.595C275.668 61.7821 274.969 61.9224 274.223 62.0159C273.477 62.1562 272.777 62.2264 272.125 62.2264ZM284.395 61.3846V10.6633H292.926V28.6929H293.416C294.208 27.7107 295.141 26.8455 296.213 26.0972C297.286 25.3489 298.498 24.7643 299.85 24.3433C301.248 23.8756 302.787 23.6418 304.465 23.6418C306.797 23.6418 308.848 24.0627 310.62 24.9046C312.438 25.7464 313.86 27.1027 314.886 28.9735C315.911 30.8443 316.424 33.3464 316.424 36.4799V61.3846H307.822V38.0233C307.822 36.7138 307.659 35.6381 307.333 34.7963C307.053 33.9076 306.61 33.2061 306.004 32.6916C305.444 32.1304 304.745 31.7329 303.906 31.499C303.067 31.2652 302.134 31.1483 301.109 31.1483C299.57 31.1483 298.171 31.5224 296.913 32.2707C295.7 33.019 294.721 34.0479 293.975 35.3575C293.276 36.667 292.926 38.187 292.926 39.9175V61.3846H284.395ZM341.041 62.2264C337.124 62.2264 333.861 61.5482 331.25 60.1919C328.639 58.7889 326.681 56.6609 325.376 53.8079C324.07 50.955 323.417 47.3304 323.417 42.9341C323.417 38.491 324.07 34.8664 325.376 32.0603C326.681 29.2073 328.639 27.1027 331.25 25.7464C333.861 24.3433 337.124 23.6418 341.041 23.6418C344.584 23.6418 347.545 24.3199 349.922 25.6763C352.347 26.9858 354.165 29.0203 355.377 31.7796C356.589 34.539 357.196 38.1169 357.196 42.5132V45.0387H332.159C332.252 47.3304 332.602 49.2713 333.208 50.8615C333.814 52.4049 334.747 53.5741 336.006 54.3692C337.311 55.1175 339.013 55.4916 341.111 55.4916C342.183 55.4916 343.185 55.3513 344.118 55.0707C345.05 54.7901 345.866 54.3692 346.566 53.8079C347.265 53.1999 347.801 52.4516 348.174 51.563C348.594 50.6744 348.803 49.6455 348.803 48.4763H357.196C357.196 50.8147 356.776 52.8492 355.937 54.5796C355.144 56.3101 354.002 57.7366 352.51 58.859C351.065 59.9815 349.363 60.8233 347.405 61.3846C345.447 61.9458 343.325 62.2264 341.041 62.2264ZM332.299 39.0055H348.314C348.314 37.4621 348.127 36.1526 347.754 35.0769C347.428 34.0012 346.939 33.1126 346.286 32.411C345.68 31.7095 344.934 31.2184 344.048 30.9378C343.162 30.6104 342.16 30.4467 341.041 30.4467C339.223 30.4467 337.684 30.7507 336.425 31.3587C335.213 31.9667 334.281 32.9021 333.628 34.1649C332.975 35.4276 332.532 37.0412 332.299 39.0055ZM364.437 61.3846V24.4836H371.57L372.269 30.3064H372.759C373.225 29.1372 373.784 28.0615 374.437 27.0793C375.136 26.0504 376.022 25.2319 377.095 24.6239C378.167 23.9692 379.472 23.6418 381.011 23.6418C381.757 23.6418 382.433 23.7119 383.039 23.8523C383.692 23.9926 384.181 24.1329 384.508 24.2732V32.3409H381.92C380.475 32.3409 379.193 32.5513 378.074 32.9723C376.955 33.3464 375.999 33.9544 375.206 34.7963C374.46 35.6381 373.901 36.6904 373.528 37.9532C373.155 39.2159 372.968 40.6892 372.968 42.3729V61.3846H364.437ZM389.773 61.3846V10.6633H398.305V61.3846H389.773ZM412.289 74.1526C410.564 74.1526 409.165 74.0123 408.093 73.7316C407.02 73.4978 406.414 73.3575 406.274 73.3107V67.2073H410.191C411.17 67.2073 412.149 66.9501 413.128 66.4356C414.107 65.9212 414.993 65.2196 415.785 64.331C416.578 63.4424 417.161 62.4603 417.534 61.3846L403.197 24.4836H412.149L419.002 42.1624C419.329 42.9575 419.655 43.963 419.981 45.179C420.354 46.395 420.727 47.6578 421.1 48.9673C421.473 50.2301 421.776 51.3759 422.01 52.4049H422.359C422.546 51.7033 422.755 50.9083 422.989 50.0196C423.222 49.131 423.455 48.219 423.688 47.2836C423.968 46.3483 424.247 45.4363 424.527 44.5476C424.807 43.659 425.04 42.8873 425.226 42.2326L430.821 24.4836H439.493L427.185 59.4904C426.485 61.4547 425.693 63.3255 424.807 65.1027C423.968 66.8799 422.965 68.4467 421.8 69.803C420.681 71.1593 419.329 72.2116 417.744 72.9599C416.205 73.755 414.387 74.1526 412.289 74.1526Z" fill="#EB6E4B"/>
</g>
<defs>
<clipPath id="clip0_40_222">
<rect width="440" height="76" fill="white"/>
</clipPath>
</defs>
</svg>
