<svg width="1025" height="766" viewBox="0 0 1025 766" fill="none" xmlns="http://www.w3.org/2000/svg">
<path d="M746.896 134.436C593.704 16.3299 380.579 11.504 225.094 126.579C142.9 187.412 79.1786 280.481 90.7724 422.189C94.8696 472.313 106.274 513.434 122.912 547.096C190.302 683.559 467.089 678.304 482.461 678.284C492.42 678.274 502.379 678.497 512.338 678.952C547.221 680.554 581.92 684.941 616.104 692.074C664.842 702.234 726.889 707.339 782.326 688.096C791.745 684.841 800.897 680.861 809.7 676.19C840.166 659.997 874.269 644.522 894.207 606.114C909.19 577.288 920.106 541.143 925.36 496.124C944.48 332.171 848.938 213.107 746.896 134.436Z" fill="#F2F2F2"/>
<path d="M513.008 722.042C754.939 722.042 951.062 703.629 951.062 680.914C951.062 658.199 754.939 639.785 513.008 639.785C271.076 639.785 74.9526 658.199 74.9526 680.914C74.9526 703.629 271.076 722.042 513.008 722.042Z" fill="#3F3D56"/>
<path opacity="0.1" d="M491.608 700.219C716.623 700.219 899.033 691.576 899.033 680.914C899.033 670.252 716.623 661.609 491.608 661.609C266.594 661.609 84.1836 670.252 84.1836 680.914C84.1836 691.576 266.594 700.219 491.608 700.219Z" fill="black"/>
<path d="M717.001 130.088V176.23H656.942V679.445H782.284V195.385V176.23V130.088H717.001Z" fill="#575A89"/>
<path d="M386.237 440.026V360.801H309.639V440.026H280.915V680.316H414.09V440.026H386.237Z" fill="#575A89"/>
<path d="M399.293 568.877H295.712V681.186H399.293V568.877Z" fill="#3F3D56"/>
<path opacity="0.1" d="M312.25 568.877H295.712V681.186H312.25V568.877Z" fill="black"/>
<path d="M612.55 104.84V131.829H459.353V104.84H414.09V681.186H656.942V104.84H612.55Z" fill="#3F3D56"/>
<path opacity="0.1" d="M646.496 104.84H612.549V131.829H646.496V104.84Z" fill="black"/>
<path opacity="0.1" d="M448.037 104.84H414.09V681.186H448.037V104.84Z" fill="black"/>
<path d="M240.875 269.386V247.621H218.244V269.386H177.333V681.186H280.915V269.386H240.875Z" fill="#3F3D56"/>
<path opacity="0.1" d="M230.429 247.621H218.243V269.386H230.429V247.621Z" fill="black"/>
<path opacity="0.1" d="M189.519 269.386H177.333V681.186H189.519V269.386Z" fill="black"/>
<path opacity="0.1" d="M646.496 326.847H612.549V681.186H646.496V326.847Z" fill="black"/>
<path opacity="0.1" d="M280.914 269.386H249.579V345.13H280.914V269.386Z" fill="black"/>
<path d="M500.263 177.972H451.519V198.867H500.263V177.972Z" fill="#F8F9FA"/>
<path d="M603.845 393.013H555.101V413.908H603.845V393.013Z" fill="#F8F9FA"/>
<path d="M500.263 543.629H451.519V564.524H500.263V543.629Z" fill="#F8F9FA"/>
<path d="M253.931 363.412H205.187V384.307H253.931V363.412Z" fill="#F8F9FA"/>
<path d="M372.31 581.066H323.566V601.96H372.31V581.066Z" fill="#F8F9FA"/>
<path opacity="0.1" d="M389.719 458.309H306.157V493.134H389.719V458.309Z" fill="black"/>
<path opacity="0.1" d="M755.3 216.279H671.738V251.103H755.3V216.279Z" fill="black"/>
<path opacity="0.1" d="M755.3 290.281H671.738V325.105H755.3V290.281Z" fill="black"/>
<path opacity="0.1" d="M755.3 364.283H671.738V399.107H755.3V364.283Z" fill="black"/>
<path opacity="0.1" d="M755.3 438.285H671.738V473.11H755.3V438.285Z" fill="black"/>
<path opacity="0.1" d="M755.3 512.287H671.738V547.112H755.3V512.287Z" fill="black"/>
<path opacity="0.1" d="M755.3 586.289H671.738V621.114H755.3V586.289Z" fill="black"/>
<path d="M811.008 373.859V278.963H750.077V373.859H728.316V681.186H831.898V373.859H811.008Z" fill="#3F3D56"/>
<path opacity="0.1" d="M769.227 278.963H750.077V373.86H769.227V278.963Z" fill="black"/>
<path opacity="0.1" d="M747.466 373.86H728.317V681.186H747.466V373.86Z" fill="black"/>
<path opacity="0.1" d="M831.898 527.958H780.542V558.43H831.898V527.958Z" fill="black"/>
<path d="M831.027 482.686H782.283V503.581H831.027V482.686Z" fill="#F8F9FA"/>
<path d="M983.595 503.781C983.595 581.345 937.494 608.427 880.626 608.427C823.757 608.427 777.656 581.345 777.656 503.781C777.656 426.217 880.626 327.543 880.626 327.543C880.626 327.543 983.595 426.217 983.595 503.781Z" fill="#EB6E4B"/>
<path d="M876.875 596.562L877.929 531.648L921.817 451.34L878.094 521.464L878.569 492.276L908.816 434.174L878.694 484.553L879.547 432.057L911.936 385.8L879.68 423.802L880.213 327.543L876.865 454.972L877.141 449.716L844.21 399.299L876.612 459.807L873.544 518.436L873.452 516.88L835.49 463.823L873.338 522.378L872.954 529.71L872.885 529.819L872.917 530.421L865.132 679.169H875.533L876.781 602.338L914.537 543.928L876.875 596.562Z" fill="#3F3D56"/>
<path d="M228.939 504.62C228.939 582.184 182.838 609.266 125.969 609.266C69.1009 609.266 23 582.184 23 504.62C23 427.056 125.969 328.383 125.969 328.383C125.969 328.383 228.939 427.056 228.939 504.62Z" fill="#EB6E4B"/>
<path d="M122.218 597.401L123.272 532.487L167.161 452.179L123.438 522.304L123.912 493.116L154.159 435.014L124.038 485.392V485.393L124.89 432.897L157.28 386.639L125.025 424.642L125.558 328.382L122.209 455.812L122.484 450.555L89.5528 400.138L121.956 460.646L118.888 519.275L118.797 517.719L80.833 464.663L118.681 523.217L118.298 530.548L118.229 530.659L118.26 531.261L110.476 680.007H120.877L122.124 603.177L159.88 544.768L122.218 597.401Z" fill="#3F3D56"/>
</svg>
