<svg width="650" height="619" viewBox="0 0 650 619" fill="none" xmlns="http://www.w3.org/2000/svg">
<g clip-path="url(#clip0_4_2)">
<path d="M370.915 575.759C364.886 575.758 359.053 573.619 354.452 569.723C349.852 565.827 346.782 560.425 345.789 554.478L345.781 554.429L345.812 554.391C347.442 552.439 348.759 550.247 349.717 547.892C348.577 549.353 347.2 550.613 345.643 551.618L345.483 551.725L345.474 551.533C345.454 551.111 345.443 550.692 345.443 550.287C345.429 545.956 346.526 541.693 348.629 537.907C350.732 534.12 353.771 530.936 357.456 528.659C353.718 524.76 350.906 520.069 349.227 514.935C347.549 509.801 347.047 504.355 347.759 499C348.471 493.646 350.378 488.52 353.34 484.003C356.302 479.486 360.242 475.693 364.869 472.906C369.496 470.118 374.69 468.408 380.068 467.901C385.446 467.393 390.869 468.103 395.935 469.976C401.001 471.849 405.581 474.838 409.335 478.722C413.09 482.605 415.922 487.284 417.623 492.411L417.655 492.508L417.56 492.546C415.391 493.481 413.057 493.973 410.695 493.992C413.154 494.688 415.707 494.997 418.261 494.907L418.349 494.904L418.37 494.989C419.084 497.851 419.445 500.79 419.444 503.74C419.444 503.847 419.444 503.953 419.443 504.059C419.436 506.353 419.912 508.622 420.841 510.72C421.77 512.817 423.131 514.695 424.834 516.231C427.555 518.707 429.707 521.742 431.143 525.129C432.579 528.516 433.264 532.174 433.151 535.851C433.038 539.528 432.13 543.137 430.489 546.43C428.848 549.722 426.513 552.62 423.646 554.924L423.593 554.966L423.532 554.939C419.766 553.23 417.144 551.323 415.358 548.981C416.565 551.93 418.326 554.62 420.545 556.907L420.642 557.006L420.522 557.076C416.716 559.294 412.399 560.487 407.994 560.539C403.589 560.592 399.246 559.501 395.387 557.375C393.838 562.67 390.617 567.321 386.206 570.634C381.796 573.947 376.432 575.745 370.915 575.759V575.759Z" fill="#F2F2F2"/>
<path d="M361.841 616.332C361.729 616.332 361.622 616.291 361.538 616.218C361.454 616.145 361.399 616.044 361.383 615.934C360.173 605.142 360.1 594.253 361.167 583.446C362.764 566.398 367.894 541.843 383.261 521.676C383.297 521.627 383.343 521.586 383.396 521.555C383.449 521.525 383.507 521.505 383.567 521.496C383.627 521.488 383.689 521.492 383.748 521.507C383.807 521.523 383.862 521.55 383.911 521.587C383.959 521.624 384 521.67 384.03 521.722C384.061 521.775 384.081 521.833 384.089 521.894C384.097 521.954 384.093 522.016 384.077 522.075C384.061 522.133 384.034 522.189 383.997 522.237C368.763 542.23 363.675 566.605 362.089 583.533C361.028 594.267 361.098 605.084 362.299 615.804C362.309 615.869 362.304 615.936 362.285 616C362.266 616.063 362.234 616.122 362.19 616.172C362.147 616.222 362.093 616.263 362.033 616.29C361.972 616.318 361.907 616.332 361.841 616.332V616.332Z" fill="#3F3D56"/>
<path d="M369.522 548.342C369.425 548.342 369.329 548.311 369.25 548.254C369.171 548.197 369.112 548.116 369.082 548.023C369.052 547.93 369.052 547.83 369.082 547.737C369.112 547.644 369.171 547.562 369.25 547.505C373.628 544.541 378.359 542.133 383.331 540.337C391.1 537.493 402.914 534.914 415.077 538.785C415.194 538.822 415.291 538.904 415.347 539.013C415.404 539.122 415.414 539.249 415.377 539.366C415.34 539.483 415.258 539.58 415.149 539.637C415.04 539.693 414.913 539.704 414.796 539.667C402.883 535.875 391.283 538.411 383.65 541.206C378.757 542.972 374.103 545.339 369.794 548.254C369.715 548.311 369.62 548.342 369.522 548.342V548.342Z" fill="#3F3D56"/>
<path d="M132.877 104.5H127.121V69.059C127.121 64.2694 125.218 59.6761 121.832 56.2894C118.445 52.9026 113.852 51 109.062 51H84.1212V0H80.1212V51H46.1212V104.5H12.6212V617.5H200.621V172.244C200.621 154.277 193.484 137.046 180.779 124.342C168.075 111.637 150.844 104.5 132.877 104.5V104.5Z" fill="#F2F2F2"/>
<path d="M305.086 417H300.121V410.059C300.119 405.456 298.357 401.027 295.197 397.68C292.037 394.333 287.717 392.32 283.121 392.053V345H279.121V392H261.121V417H197.121V618H339.121V451.035C339.121 446.566 338.241 442.14 336.53 438.011C334.82 433.881 332.313 430.129 329.152 426.969C325.992 423.808 322.24 421.301 318.111 419.591C313.981 417.88 309.555 417 305.086 417V417Z" fill="#F2F2F2"/>
<path d="M579.121 273.108V261.059C579.119 256.456 577.357 252.027 574.197 248.68C571.037 245.333 566.717 243.32 562.121 243.053V196H558.121V243H540.121V273H455.121V618H643.121V340.744C643.12 323.426 636.487 306.766 624.584 294.187C612.681 281.608 596.413 274.065 579.121 273.108Z" fill="#F2F2F2"/>
<path d="M511.121 322H486.121V342H511.121V322Z" fill="white"/>
<path d="M552.121 322H527.121V342H552.121V322Z" fill="white"/>
<path d="M593.121 322H568.121V342H593.121V322Z" fill="white"/>
<path d="M511.121 373H486.121V393H511.121V373Z" fill="white"/>
<path d="M552.121 373H527.121V393H552.121V373Z" fill="white"/>
<path d="M593.121 373H568.121V393H593.121V373Z" fill="white"/>
<path d="M511.121 424H486.121V444H511.121V424Z" fill="white"/>
<path d="M552.121 424H527.121V444H552.121V424Z" fill="white"/>
<path d="M593.121 424H568.121V444H593.121V424Z" fill="white"/>
<path d="M511.121 475H486.121V495H511.121V475Z" fill="white"/>
<path d="M552.121 475H527.121V495H552.121V475Z" fill="white"/>
<path d="M593.121 475H568.121V495H593.121V475Z" fill="white"/>
<path d="M511.121 526H486.121V546H511.121V526Z" fill="white"/>
<path d="M552.121 526H527.121V546H552.121V526Z" fill="white"/>
<path d="M593.121 526H568.121V546H593.121V526Z" fill="white"/>
<path d="M511.121 577H486.121V597H511.121V577Z" fill="white"/>
<path d="M552.121 577H527.121V597H552.121V577Z" fill="white"/>
<path d="M593.121 577H568.121V597H593.121V577Z" fill="white"/>
<path d="M147.121 145H66.1212V151H147.121V145Z" fill="white"/>
<path d="M147.121 182H66.1212V188H147.121V182Z" fill="white"/>
<path d="M147.121 219H66.1212V225H147.121V219Z" fill="white"/>
<path d="M147.121 256H66.1212V262H147.121V256Z" fill="white"/>
<path d="M147.121 293H66.1212V299H147.121V293Z" fill="white"/>
<path d="M147.121 330H66.1212V336H147.121V330Z" fill="white"/>
<path d="M147.121 367H66.1212V373H147.121V367Z" fill="white"/>
<path d="M147.121 404H66.1212V410H147.121V404Z" fill="white"/>
<path d="M147.121 441H66.1212V447H147.121V441Z" fill="white"/>
<path d="M147.121 478H66.1212V484H147.121V478Z" fill="white"/>
<path d="M147.121 515H66.1212V521H147.121V515Z" fill="white"/>
<path d="M147.121 552H66.1212V558H147.121V552Z" fill="white"/>
<path d="M239.621 444H214.621V464H239.621V444Z" fill="white"/>
<path d="M280.621 444H255.621V464H280.621V444Z" fill="white"/>
<path d="M321.621 444H296.621V464H321.621V444Z" fill="white"/>
<path d="M240.121 495H215.121V515H240.121V495Z" fill="white"/>
<path d="M281.121 495H256.121V515H281.121V495Z" fill="white"/>
<path d="M322.121 495H297.121V515H322.121V495Z" fill="white"/>
<path d="M240.621 546H215.621V566H240.621V546Z" fill="white"/>
<path d="M281.621 546H256.621V566H281.621V546Z" fill="white"/>
<path d="M322.621 546H297.621V566H322.621V546Z" fill="white"/>
<path d="M99.1212 62H74.1212V82H99.1212V62Z" fill="white"/>
<path d="M19.4867 568.199C21.4738 552.22 31.3766 536.477 46.6154 531.277C40.6057 547.723 40.607 565.766 46.6191 582.211C48.9608 588.545 52.2247 595.346 50.0221 601.73C48.6517 605.702 45.2991 608.741 41.5516 610.642C37.8038 612.542 33.6446 613.448 29.5374 614.335L28.7291 615.004C22.209 600.281 17.4996 584.178 19.4867 568.199Z" fill="#CACACA"/>
<path d="M46.7667 531.579C37.8923 541.522 32.3766 554.009 31.003 567.266C30.6567 570.115 30.7615 573 31.3136 575.816C31.9401 578.542 33.2851 581.05 35.2088 583.08C36.9645 585.009 38.9838 586.779 40.2399 589.101C40.8653 590.299 41.2303 591.616 41.3111 592.965C41.3918 594.315 41.1865 595.665 40.7085 596.93C39.5994 600.111 37.4135 602.704 35.1876 605.165C32.7163 607.898 30.1061 610.697 29.0556 614.32C28.9283 614.759 28.2546 614.536 28.3817 614.097C30.2094 607.794 36.3283 604.214 39.2464 598.536C40.608 595.887 41.1795 592.812 39.903 590.015C38.7867 587.57 36.7061 585.743 34.9115 583.805C33.0059 581.852 31.6074 579.463 30.8382 576.845C30.1445 574.066 29.9287 571.189 30.2 568.338C30.7086 561.909 32.2247 555.601 34.693 549.643C37.4723 542.828 41.397 536.538 46.2972 531.047C46.6006 530.707 47.0682 531.241 46.7667 531.579H46.7667Z" fill="white"/>
<path d="M31.194 562.971C29.0011 562.439 27.0689 561.144 25.7424 559.319C24.4158 557.493 23.7814 555.256 23.9523 553.006C23.9885 552.55 24.6975 552.585 24.6614 553.041C24.4983 555.136 25.0895 557.22 26.3282 558.918C27.5669 560.615 29.3716 561.814 31.4166 562.298C31.8608 562.403 31.6358 563.076 31.1941 562.971H31.194Z" fill="white"/>
<path d="M34.1898 582.219C38.1505 579.855 41.0742 576.084 42.3782 571.659C42.507 571.22 43.1807 571.443 43.0521 571.881C41.6866 576.483 38.6359 580.401 34.509 582.853C34.1154 583.087 33.7984 582.452 34.1898 582.219V582.219Z" fill="white"/>
<path d="M38.1307 543.5C38.9363 543.883 39.8243 544.06 40.715 544.014C41.6058 543.969 42.4713 543.703 43.234 543.241C43.6243 543.003 43.941 543.638 43.5532 543.875C42.7082 544.382 41.7519 544.674 40.7679 544.726C39.7838 544.778 38.802 544.589 37.9082 544.174C37.8207 544.142 37.7486 544.078 37.7067 543.994C37.6648 543.911 37.6561 543.815 37.6825 543.726C37.7124 543.637 37.7762 543.563 37.8602 543.521C37.9441 543.478 38.0413 543.471 38.1307 543.5H38.1307Z" fill="white"/>
<path d="M93.0657 559.817C92.8262 559.972 92.5867 560.128 92.3469 560.29C89.1375 562.4 86.105 564.768 83.2791 567.369C83.0574 567.567 82.8357 567.771 82.6201 567.974C75.8787 574.314 70.373 581.851 66.3828 590.201C64.7981 593.525 63.4686 596.965 62.4058 600.491C60.9382 605.361 59.7345 610.757 56.8295 614.74C56.5311 615.159 56.2071 615.559 55.8592 615.938H29.6074C29.5477 615.908 29.4877 615.884 29.4278 615.854L28.3796 615.902C28.4218 615.716 28.4694 615.525 28.5115 615.339C28.5355 615.231 28.5653 615.123 28.5893 615.015C28.6072 614.944 28.6253 614.872 28.6373 614.806C28.6432 614.782 28.6493 614.758 28.6552 614.74C28.6672 614.674 28.6853 614.614 28.6973 614.554C28.9608 613.482 29.2323 612.41 29.5118 611.338C29.5118 611.332 29.5118 611.332 29.5176 611.326C31.5691 603.136 34.585 595.219 38.5018 587.739C38.6217 587.518 38.7413 587.29 38.8732 587.069C40.6869 583.758 42.7682 580.601 45.0963 577.629C46.3763 576.006 47.7377 574.449 49.1752 572.964C52.8968 569.133 57.1978 565.911 61.9206 563.416C71.3361 558.445 82.2368 556.54 92.2992 559.577C92.5565 559.655 92.8083 559.733 93.0657 559.817Z" fill="#CACACA"/>
<path d="M93.0067 560.15C79.9343 562.746 68.0123 569.396 58.9341 579.153C56.9425 581.219 55.289 583.586 54.0344 586.167C52.8936 588.721 52.4573 591.533 52.771 594.312C53.0115 596.909 53.5582 599.538 53.1631 602.149C52.941 603.482 52.4396 604.753 51.6918 605.879C50.944 607.005 49.9666 607.96 48.8238 608.681C46.0231 610.554 42.7166 611.308 39.4576 611.933C35.8391 612.627 32.0696 613.291 29.0495 615.551C28.6836 615.825 28.2801 615.241 28.6454 614.967C33.8997 611.035 40.941 611.86 46.689 609.084C49.3711 607.789 51.6792 605.677 52.3436 602.676C52.9246 600.051 52.3632 597.34 52.097 594.712C51.7512 592.006 52.0735 589.255 53.0356 586.702C54.1547 584.066 55.7143 581.639 57.6476 579.526C61.9241 574.699 66.933 570.575 72.4907 567.304C78.813 563.536 85.7333 560.877 92.9522 559.442C93.399 559.354 93.4506 560.062 93.0067 560.15H93.0067Z" fill="white"/>
<path d="M61.6723 575.839C60.2419 574.094 59.4785 571.897 59.5185 569.641C59.5584 567.384 60.399 565.216 61.8903 563.522C62.1932 563.18 62.7383 563.635 62.435 563.977C61.0435 565.552 60.2606 567.572 60.2277 569.673C60.1948 571.774 60.9141 573.818 62.2556 575.435C62.5468 575.787 61.9617 576.189 61.6723 575.839V575.839Z" fill="white"/>
<path d="M52.4757 593.011C57.0619 593.508 61.6666 592.257 65.3718 589.509C65.7387 589.237 66.1424 589.821 65.7759 590.093C61.9149 592.945 57.1203 594.237 52.3489 593.71C51.8942 593.659 52.0234 592.961 52.4757 593.011V593.011Z" fill="white"/>
<path d="M78.9339 564.469C79.3466 565.259 79.9493 565.935 80.6877 566.435C81.4262 566.936 82.2773 567.245 83.1646 567.334C83.6198 567.379 83.49 568.077 83.0378 568.033C82.0579 567.929 81.1184 567.586 80.3013 567.036C79.4842 566.485 78.8145 565.742 78.3505 564.873C78.2999 564.795 78.2811 564.7 78.2977 564.608C78.3144 564.517 78.3653 564.435 78.4402 564.379C78.5177 564.326 78.613 564.306 78.7055 564.322C78.7979 564.339 78.88 564.392 78.9339 564.469Z" fill="white"/>
<path d="M496.487 568.199C498.474 552.22 508.377 536.477 523.615 531.277C517.606 547.723 517.607 565.766 523.619 582.211C525.961 588.545 529.225 595.346 527.022 601.73C525.652 605.702 522.299 608.741 518.552 610.642C514.804 612.542 510.645 613.448 506.537 614.335L505.729 615.004C499.209 600.281 494.5 584.178 496.487 568.199Z" fill="#CACACA"/>
<path d="M523.767 531.579C514.892 541.522 509.377 554.009 508.003 567.266C507.657 570.115 507.761 573 508.314 575.816C508.94 578.542 510.285 581.05 512.209 583.08C513.964 585.009 515.984 586.779 517.24 589.101C517.865 590.299 518.23 591.616 518.311 592.965C518.392 594.315 518.186 595.665 517.708 596.93C516.599 600.111 514.413 602.704 512.188 605.165C509.716 607.898 507.106 610.697 506.056 614.32C505.928 614.759 505.255 614.536 505.382 614.097C507.209 607.794 513.328 604.214 516.246 598.536C517.608 595.887 518.179 592.812 516.903 590.015C515.787 587.57 513.706 585.743 511.912 583.805C510.006 581.852 508.607 579.463 507.838 576.845C507.144 574.066 506.929 571.189 507.2 568.338C507.709 561.909 509.225 555.601 511.693 549.643C514.472 542.828 518.397 536.538 523.297 531.047C523.601 530.707 524.068 531.241 523.767 531.579V531.579Z" fill="white"/>
<path d="M508.194 562.971C506.001 562.439 504.069 561.144 502.742 559.319C501.416 557.493 500.781 555.256 500.952 553.006C500.988 552.55 501.697 552.585 501.661 553.041C501.498 555.136 502.089 557.22 503.328 558.918C504.567 560.615 506.372 561.814 508.417 562.298C508.861 562.403 508.636 563.076 508.194 562.971V562.971Z" fill="white"/>
<path d="M511.19 582.219C515.15 579.855 518.074 576.084 519.378 571.659C519.507 571.22 520.181 571.443 520.052 571.881C518.687 576.483 515.636 580.401 511.509 582.853C511.115 583.087 510.798 582.452 511.19 582.219V582.219Z" fill="white"/>
<path d="M515.131 543.5C515.936 543.883 516.824 544.06 517.715 544.014C518.606 543.969 519.471 543.703 520.234 543.241C520.624 543.003 520.941 543.638 520.553 543.875C519.708 544.382 518.752 544.674 517.768 544.726C516.784 544.778 515.802 544.589 514.908 544.174C514.821 544.142 514.749 544.078 514.707 543.994C514.665 543.911 514.656 543.815 514.682 543.726C514.712 543.637 514.776 543.563 514.86 543.521C514.944 543.478 515.041 543.471 515.131 543.5H515.131Z" fill="white"/>
<path d="M570.066 559.817C569.826 559.972 569.587 560.128 569.347 560.29C566.138 562.4 563.105 564.768 560.279 567.369C560.057 567.567 559.836 567.771 559.62 567.974C552.879 574.314 547.373 581.851 543.383 590.201C541.798 593.525 540.469 596.965 539.406 600.491C537.938 605.361 536.734 610.757 533.83 614.74C533.531 615.159 533.207 615.559 532.859 615.938H506.607C506.548 615.908 506.488 615.884 506.428 615.854L505.38 615.902C505.422 615.716 505.469 615.525 505.512 615.339C505.536 615.231 505.565 615.123 505.589 615.015C505.607 614.944 505.625 614.872 505.637 614.806C505.643 614.782 505.649 614.758 505.655 614.74C505.667 614.674 505.685 614.614 505.697 614.554C505.961 613.482 506.232 612.41 506.512 611.338C506.512 611.332 506.512 611.332 506.518 611.326C508.569 603.136 511.585 595.219 515.502 587.739C515.622 587.518 515.741 587.29 515.873 587.069C517.687 583.758 519.768 580.601 522.096 577.629C523.376 576.006 524.738 574.449 526.175 572.964C529.897 569.133 534.198 565.911 538.921 563.416C548.336 558.445 559.237 556.54 569.299 559.577C569.557 559.655 569.808 559.733 570.066 559.817Z" fill="#CACACA"/>
<path d="M570.007 560.15C556.934 562.746 545.012 569.396 535.934 579.153C533.942 581.219 532.289 583.586 531.034 586.167C529.894 588.721 529.457 591.533 529.771 594.312C530.011 596.909 530.558 599.538 530.163 602.149C529.941 603.482 529.44 604.753 528.692 605.879C527.944 607.005 526.967 607.96 525.824 608.681C523.023 610.554 519.717 611.308 516.458 611.933C512.839 612.627 509.069 613.291 506.049 615.551C505.684 615.825 505.28 615.241 505.645 614.967C510.9 611.035 517.941 611.86 523.689 609.084C526.371 607.789 528.679 605.677 529.344 602.676C529.925 600.051 529.363 597.34 529.097 594.712C528.751 592.006 529.073 589.255 530.035 586.702C531.155 584.066 532.714 581.639 534.647 579.526C538.924 574.699 543.933 570.575 549.491 567.304C555.813 563.536 562.733 560.877 569.952 559.442C570.399 559.354 570.451 560.062 570.007 560.15H570.007Z" fill="white"/>
<path d="M538.672 575.839C537.242 574.094 536.479 571.897 536.519 569.641C536.559 567.384 537.399 565.216 538.89 563.522C539.193 563.18 539.738 563.635 539.435 563.977C538.044 565.552 537.261 567.572 537.228 569.673C537.195 571.774 537.914 573.818 539.256 575.435C539.547 575.787 538.962 576.189 538.672 575.839V575.839Z" fill="white"/>
<path d="M529.476 593.011C534.062 593.508 538.667 592.257 542.372 589.509C542.739 589.237 543.142 589.821 542.776 590.093C538.915 592.945 534.12 594.237 529.349 593.71C528.894 593.659 529.023 592.961 529.476 593.011V593.011Z" fill="white"/>
<path d="M555.934 564.469C556.347 565.259 556.949 565.935 557.688 566.435C558.426 566.936 559.277 567.245 560.165 567.334C560.62 567.379 560.49 568.077 560.038 568.033C559.058 567.929 558.118 567.586 557.301 567.036C556.484 566.485 555.814 565.742 555.351 564.873C555.3 564.795 555.281 564.7 555.298 564.608C555.314 564.517 555.365 564.435 555.44 564.379C555.518 564.326 555.613 564.306 555.705 564.322C555.798 564.339 555.88 564.392 555.934 564.469V564.469Z" fill="white"/>
<path d="M207.315 75.0122C205.226 73.5376 202.94 72 200.384 72.0615C194.197 72.2102 190.861 81.2798 184.681 80.9609C180.74 80.7575 178.123 76.7535 174.453 75.3017C169.675 73.4117 163.595 77.1081 163.074 82.2196L163.688 81.658C182.26 86.1857 201.533 87.0761 220.444 84.2801C216.068 81.1908 211.691 78.1015 207.315 75.0122Z" fill="#F0F0F0"/>
<path d="M492.314 34.0122C490.225 32.5376 487.94 31 485.384 31.0615C479.197 31.2102 475.861 40.2798 469.681 39.9609C465.74 39.7575 463.123 35.7535 459.453 34.3017C454.675 32.4117 448.595 36.1081 448.074 41.2196L448.687 40.658C467.26 45.1857 486.533 46.0761 505.444 43.2801C501.068 40.1908 496.691 37.1015 492.314 34.0122Z" fill="#F0F0F0"/>
<path d="M333.314 201.012C331.225 199.538 328.94 198 326.384 198.061C320.197 198.21 316.861 207.28 310.681 206.961C306.74 206.757 304.123 202.754 300.453 201.302C295.675 199.412 289.595 203.108 289.074 208.22L289.687 207.658C308.26 212.186 327.533 213.076 346.444 210.28C342.068 207.191 337.691 204.102 333.314 201.012Z" fill="#F0F0F0"/>
<path d="M437.682 473.546C437.735 473.513 437.779 473.467 437.81 473.412C437.842 473.358 437.859 473.296 437.862 473.233C437.81 473.279 437.759 473.328 437.706 473.372C437.698 473.431 437.695 473.486 437.682 473.546Z" fill="#2F2E41"/>
<path d="M648.485 618.616H1.1907C0.875513 618.615 0.573534 618.489 0.350983 618.266C0.128431 618.043 0.003479 617.74 0.003479 617.425C0.003479 617.11 0.128431 616.808 0.350983 616.584C0.573534 616.361 0.875513 616.235 1.1907 616.234H648.485C648.8 616.235 649.102 616.361 649.324 616.584C649.547 616.808 649.672 617.11 649.672 617.425C649.672 617.74 649.547 618.043 649.324 618.266C649.102 618.489 648.8 618.615 648.485 618.616Z" fill="#CACACA"/>
</g>
<defs>
<clipPath id="clip0_4_2">
<rect width="649.675" height="618.616" fill="white"/>
</clipPath>
</defs>
</svg>
