<svg width="32" height="32" viewBox="0 0 32 32" fill="none" xmlns="http://www.w3.org/2000/svg">
<path d="M15.9999 2.66669C8.89325 8.73335 5.33325 13.9734 5.33325 18.4C5.33325 25.04 10.3999 29.3334 15.9999 29.3334C21.5999 29.3334 26.6666 25.04 26.6666 18.4C26.6666 13.9734 23.1066 8.73335 15.9999 2.66669ZM15.9999 26.6667C11.5333 26.6667 7.99992 23.24 7.99992 18.4C7.99992 15.28 10.5999 11.1467 15.9999 6.21335C21.3999 11.1467 23.9999 15.2667 23.9999 18.4C23.9999 23.24 20.4666 26.6667 15.9999 26.6667ZM10.4399 18.6667C10.9333 18.6667 11.3333 19.0134 11.4266 19.4934C11.9733 22.4534 14.4666 23.4667 16.2799 23.32C16.8533 23.2934 17.3333 23.7467 17.3333 24.32C17.3333 24.8534 16.9066 25.2934 16.3733 25.32C13.5333 25.4934 10.2133 23.8667 9.45325 19.8267C9.34659 19.2267 9.82658 18.6667 10.4399 18.6667Z" fill="#EB6E4B"/>
</svg>
