<svg width="32" height="32" viewBox="0 0 32 32" fill="none" xmlns="http://www.w3.org/2000/svg">
<path d="M19.3334 22.6667C19.3334 24.8667 17.5334 26.6667 15.3334 26.6667C13.1334 26.6667 11.3334 24.8667 11.3334 22.6667H14.0001C14.0001 23.4 14.6001 24 15.3334 24C16.0667 24 16.6667 23.4 16.6667 22.6667C16.6667 21.9333 16.0667 21.3333 15.3334 21.3333H2.66675V18.6667H15.3334C17.5334 18.6667 19.3334 20.4667 19.3334 22.6667ZM25.3334 8.66667C25.3334 6.09333 23.2401 4 20.6667 4C18.0934 4 16.0001 6.09333 16.0001 8.66667H18.6667C18.6667 7.56 19.5601 6.66667 20.6667 6.66667C21.7734 6.66667 22.6667 7.56 22.6667 8.66667C22.6667 9.77333 21.7734 10.6667 20.6667 10.6667H2.66675V13.3333H20.6667C23.2401 13.3333 25.3334 11.24 25.3334 8.66667ZM24.6667 14.6667H2.66675V17.3333H24.6667C25.7734 17.3333 26.6667 18.2267 26.6667 19.3333C26.6667 20.44 25.7734 21.3333 24.6667 21.3333V24C27.2401 24 29.3334 21.9067 29.3334 19.3333C29.3334 16.76 27.2401 14.6667 24.6667 14.6667Z" fill="#EB6E4B"/>
</svg>
